<svg xmlns="http://www.w3.org/2000/svg" width="276" height="95" viewBox="0 0 276 95" fill="none"><g clip-path="url(#clip0_1810_5071)"><path fill-rule="evenodd" clip-rule="evenodd" d="M62.5575 95H72.6688V45.0753H86.9903L89.8547 35.0767H72.6602V21.3253C72.6602 15.0794 77.8021 9.99865 84.1174 9.99865V0C72.2202 0 62.5488 9.57026 62.5488 21.3253V35.0767H57.45C55.1896 26.1833 47.0281 19.5775 37.3395 19.5775C25.9082 19.5775 16.6078 28.7707 16.6078 40.0717C16.6078 51.3727 25.9082 60.5659 37.3395 60.5659C47.0281 60.5659 55.181 53.9601 57.45 45.0667H62.5488V94.9914L62.5575 95ZM105.073 35.0767H112.157V45.0753H105.073V77.9929H94.9621V22.0022H105.073V35.0767ZM37.3481 28.5823C30.938 28.5823 25.7184 33.7401 25.7184 40.0803C25.7184 46.4205 30.938 51.5783 37.3481 51.5783C43.7583 51.5783 48.9779 46.4205 48.9779 40.0803C48.9779 33.7401 43.7583 28.5823 37.3481 28.5823ZM0 49.6505C0 64.9098 12.5529 77.3246 27.9874 77.3246V67.3259C18.1262 67.3259 10.1113 59.3921 10.1113 49.6505V22.0022H0V49.6505Z" fill="#FF774A"></path><path d="M149.839 22.9442H152.445L136.251 78.3009H133.645L149.839 22.9442Z" fill="white"></path><path d="M176.292 52.8114V32.4799H189.406V35.5644H180.002V41.082H188.508V44.1665H180.002V52.8028H176.292V52.8114Z" fill="white"></path><path d="M194.434 35.4016C193.865 35.4016 193.364 35.2131 192.959 34.8275C192.545 34.442 192.337 33.9879 192.337 33.4481C192.337 32.9083 192.545 32.4542 192.959 32.0772C193.373 31.7003 193.865 31.5032 194.434 31.5032C195.003 31.5032 195.512 31.6917 195.918 32.0772C196.332 32.4628 196.53 32.9169 196.53 33.4567C196.53 33.9964 196.323 34.4505 195.918 34.8275C195.512 35.2045 195.012 35.4016 194.434 35.4016ZM192.614 52.8114V37.5607H196.228V52.8114H192.614Z" fill="white"></path><path d="M204.376 53.1193C203.401 53.1193 202.53 52.9479 201.753 52.5966C200.977 52.2453 200.364 51.7313 199.916 51.0544C199.467 50.369 199.243 49.5294 199.243 48.5355C199.243 47.6787 199.407 46.9676 199.726 46.4021C200.045 45.8366 200.485 45.3911 201.037 45.0484C201.589 44.7057 202.219 44.4572 202.909 44.2773C203.6 44.0974 204.324 43.9774 205.075 43.8917C205.972 43.7975 206.705 43.7118 207.266 43.6347C207.827 43.5576 208.233 43.4376 208.491 43.2748C208.75 43.112 208.88 42.8636 208.88 42.5123V42.4523C208.88 41.7069 208.655 41.1243 208.207 40.7131C207.758 40.3018 207.12 40.0962 206.274 40.0962C205.385 40.0962 204.687 40.2847 204.169 40.6702C203.651 41.0558 203.306 41.5099 203.125 42.0325L199.743 41.5527C200.011 40.6274 200.451 39.8477 201.063 39.2223C201.676 38.5968 202.426 38.1256 203.315 37.8086C204.204 37.4916 205.178 37.3373 206.257 37.3373C206.999 37.3373 207.732 37.423 208.465 37.5944C209.199 37.7657 209.872 38.0485 210.476 38.4426C211.08 38.8367 211.571 39.3679 211.942 40.0448C212.313 40.7216 212.494 41.5613 212.494 42.5723V52.7766H209.018V50.686H208.897C208.681 51.1058 208.371 51.5085 207.974 51.8684C207.577 52.2368 207.076 52.5281 206.481 52.7508C205.886 52.9736 205.187 53.085 204.385 53.085L204.376 53.1193ZM205.316 50.4804C206.041 50.4804 206.671 50.3347 207.206 50.052C207.741 49.7692 208.155 49.3837 208.44 48.9039C208.724 48.4241 208.871 47.91 208.871 47.3446V45.5453C208.759 45.6396 208.569 45.7252 208.293 45.8023C208.025 45.8795 207.724 45.948 207.387 46.008C207.051 46.068 206.723 46.1194 206.395 46.1708C206.067 46.2136 205.782 46.2564 205.549 46.2907C205.006 46.3593 204.523 46.4792 204.1 46.6506C203.677 46.8133 203.341 47.0447 203.091 47.3446C202.84 47.6444 202.72 48.0214 202.72 48.4841C202.72 49.1438 202.961 49.6493 203.453 49.9834C203.945 50.3176 204.557 50.4889 205.316 50.4889V50.4804Z" fill="white"></path><path d="M219.75 43.8839V52.8202H216.135V37.5695H219.595V40.1569H219.776C220.13 39.3002 220.69 38.6233 221.467 38.1178C222.243 37.6123 223.201 37.3638 224.348 37.3638C225.41 37.3638 226.333 37.5866 227.126 38.0407C227.92 38.4948 228.533 39.1459 228.964 39.9942C229.395 40.8424 229.62 41.8876 229.611 43.1043V52.8116H225.996V43.6612C225.996 42.6416 225.729 41.8448 225.203 41.2708C224.676 40.6967 223.943 40.4054 223.011 40.4054C222.381 40.4054 221.821 40.5425 221.329 40.8167C220.837 41.0908 220.457 41.485 220.181 41.999C219.905 42.5131 219.767 43.1385 219.767 43.8754L219.75 43.8839Z" fill="white"></path><path d="M239.987 53.1109C238.451 53.1109 237.14 52.7767 236.044 52.1084C234.949 51.4402 234.103 50.5148 233.516 49.3325C232.93 48.1501 232.628 46.7878 232.628 45.2456C232.628 43.7034 232.93 42.3326 233.525 41.1416C234.129 39.9507 234.974 39.0254 236.07 38.3657C237.166 37.6974 238.46 37.3718 239.961 37.3718C241.203 37.3718 242.308 37.5946 243.274 38.0487C244.24 38.5027 245.008 39.1368 245.578 39.9678C246.147 40.7904 246.475 41.75 246.561 42.8552H243.101C242.963 42.1184 242.627 41.5101 242.109 41.0131C241.583 40.5162 240.884 40.2763 240.013 40.2763C239.271 40.2763 238.624 40.4733 238.063 40.8675C237.502 41.2616 237.071 41.8271 236.76 42.5639C236.45 43.3007 236.294 44.1746 236.294 45.2028C236.294 46.2309 236.45 47.1305 236.752 47.8759C237.062 48.6213 237.494 49.1954 238.046 49.5895C238.598 49.9836 239.254 50.1893 240.013 50.1893C240.548 50.1893 241.022 50.0864 241.445 49.8894C241.868 49.6838 242.221 49.3925 242.506 49.0069C242.791 48.6213 242.989 48.1587 243.093 47.6103H246.552C246.466 48.6899 246.147 49.6409 245.595 50.472C245.043 51.3031 244.292 51.9542 243.334 52.4169C242.385 52.8796 241.264 53.1195 239.978 53.1195L239.987 53.1109ZM238.952 52.7339H240.91L240.746 53.5735C241.376 53.6678 241.902 53.9077 242.342 54.2932C242.782 54.6788 242.998 55.2357 242.998 55.964C242.998 56.9064 242.584 57.6604 241.73 58.2259C240.876 58.7913 239.659 59.0827 238.08 59.0827L238.037 57.3177C238.805 57.3177 239.409 57.2149 239.866 57.0178C240.323 56.8122 240.548 56.4952 240.556 56.0582C240.574 55.6384 240.41 55.3214 240.082 55.1329C239.754 54.9358 239.228 54.8073 238.52 54.7302L238.952 52.7339Z" fill="white"></path><path d="M253.965 53.1193C252.99 53.1193 252.118 52.9479 251.342 52.5966C250.565 52.2453 249.953 51.7313 249.504 51.0544C249.056 50.369 248.831 49.5294 248.831 48.5355C248.831 47.6787 248.995 46.9676 249.314 46.4021C249.634 45.8366 250.074 45.3911 250.626 45.0484C251.178 44.7057 251.808 44.4572 252.498 44.2773C253.188 44.0974 253.913 43.9774 254.663 43.8917C255.561 43.7975 256.294 43.7118 256.855 43.6347C257.416 43.5576 257.821 43.4376 258.08 43.2748C258.339 43.112 258.468 42.8636 258.468 42.5123V42.4523C258.468 41.7069 258.244 41.1243 257.795 40.7131C257.346 40.3018 256.708 40.0962 255.863 40.0962C254.974 40.0962 254.275 40.2847 253.757 40.6702C253.24 41.0558 252.895 41.5099 252.714 42.0325L249.332 41.5527C249.599 40.6274 250.039 39.8477 250.652 39.2223C251.264 38.5968 252.015 38.1256 252.903 37.8086C253.792 37.4916 254.767 37.3373 255.845 37.3373C256.587 37.3373 257.321 37.423 258.054 37.5944C258.787 37.7657 259.46 38.0485 260.064 38.4426C260.668 38.8367 261.16 39.3679 261.531 40.0448C261.902 40.7216 262.083 41.5613 262.083 42.5723V52.7766H258.606V50.686H258.485C258.27 51.1058 257.959 51.5085 257.562 51.8684C257.165 52.2368 256.665 52.5281 256.07 52.7508C255.474 52.9736 254.776 53.085 253.973 53.085L253.965 53.1193ZM254.905 50.4804C255.63 50.4804 256.259 50.3347 256.794 50.052C257.329 49.7692 257.743 49.3837 258.028 48.9039C258.313 48.4241 258.459 47.91 258.459 47.3446V45.5453C258.347 45.6396 258.157 45.7252 257.881 45.8023C257.614 45.8795 257.312 45.948 256.976 46.008C256.639 46.068 256.311 46.1194 255.983 46.1708C255.656 46.2136 255.371 46.2564 255.138 46.2907C254.594 46.3593 254.111 46.4792 253.688 46.6506C253.266 46.8133 252.929 47.0447 252.679 47.3446C252.429 47.6444 252.308 48.0214 252.308 48.4841C252.308 49.1438 252.55 49.6493 253.041 49.9834C253.533 50.3176 254.146 50.4889 254.905 50.4889V50.4804Z" fill="white"></path><path d="M178.927 77.2996H174.967L182.17 56.9682H186.752L193.973 77.2996H190.013L184.543 61.1407H184.379L178.918 77.2996H178.927ZM179.056 69.323H189.849V72.2789H179.056V69.323Z" fill="white"></path><path d="M200.123 56.9682V77.2996H196.508V56.9682H200.123Z" fill="white"></path><path d="M213.635 70.883V62.0495H217.25V77.3003H213.738V74.5928H213.574C213.229 75.4496 212.66 76.1436 211.866 76.6834C211.072 77.2231 210.106 77.4973 208.95 77.4973C207.941 77.4973 207.052 77.2745 206.284 76.829C205.516 76.3835 204.912 75.7323 204.481 74.8756C204.05 74.0188 203.834 72.9821 203.834 71.7654V62.0581H207.449V71.2085C207.449 72.1767 207.716 72.9392 208.251 73.5133C208.786 74.0788 209.485 74.3701 210.348 74.3701C210.883 74.3701 211.4 74.2415 211.901 73.9845C212.401 73.7275 212.815 73.3419 213.134 72.8279C213.454 72.3138 213.617 71.6712 213.617 70.9001L213.635 70.883Z" fill="white"></path><path d="M227.647 83.3309C226.344 83.3309 225.231 83.1595 224.299 82.8082C223.367 82.457 222.617 81.9943 222.047 81.4117C221.478 80.8291 221.09 80.1865 220.865 79.4754L224.127 78.6871C224.273 78.987 224.489 79.2783 224.765 79.5782C225.041 79.8695 225.421 80.1179 225.904 80.315C226.378 80.5121 226.982 80.6063 227.707 80.6063C228.734 80.6063 229.579 80.3578 230.252 79.8695C230.925 79.3725 231.261 78.5672 231.261 77.4448V74.5574H231.08C230.89 74.9258 230.623 75.3114 230.269 75.6969C229.916 76.0911 229.441 76.4166 228.863 76.6822C228.276 76.9478 227.552 77.0764 226.672 77.0764C225.49 77.0764 224.42 76.8022 223.471 76.2453C222.522 75.6884 221.754 74.8659 221.193 73.7606C220.632 72.6554 220.348 71.2759 220.348 69.6138C220.348 67.9516 220.632 66.5208 221.193 65.3727C221.754 64.2161 222.522 63.3421 223.479 62.7424C224.437 62.1426 225.507 61.8428 226.689 61.8428C227.586 61.8428 228.328 61.997 228.915 62.2969C229.501 62.5967 229.959 62.9566 230.312 63.3764C230.658 63.7962 230.925 64.1904 231.106 64.5588H231.305V62.0398H234.876V77.539C234.876 78.8413 234.566 79.9209 233.936 80.7777C233.306 81.6344 232.452 82.2685 231.365 82.6968C230.278 83.1167 229.044 83.3309 227.664 83.3309H227.647ZM227.681 74.2575C228.449 74.2575 229.105 74.0691 229.639 73.7006C230.183 73.3322 230.588 72.801 230.873 72.0985C231.149 71.4045 231.296 70.5734 231.296 69.5967C231.296 68.6199 231.158 67.7974 230.882 67.0777C230.606 66.358 230.2 65.7925 229.665 65.3984C229.13 64.9957 228.475 64.7987 227.69 64.7987C226.905 64.7987 226.214 65.0043 225.671 65.4241C225.127 65.8439 224.722 66.4094 224.454 67.1377C224.178 67.866 224.04 68.6885 224.04 69.6052C224.04 70.522 224.178 71.3531 224.454 72.0556C224.73 72.7582 225.145 73.298 225.688 73.6835C226.232 74.0691 226.896 74.2661 227.69 74.2661L227.681 74.2575Z" fill="white"></path><path d="M248.361 70.883V62.0495H251.976V77.3003H248.464V74.5928H248.3C247.955 75.4496 247.386 76.1436 246.592 76.6834C245.799 77.2231 244.832 77.4973 243.676 77.4973C242.667 77.4973 241.778 77.2745 241.01 76.829C240.242 76.3835 239.639 75.7323 239.207 74.8756C238.776 74.0188 238.56 72.9821 238.56 71.7654V62.0581H242.175V71.2085C242.175 72.1767 242.442 72.9392 242.977 73.5133C243.512 74.0788 244.211 74.3701 245.074 74.3701C245.609 74.3701 246.126 74.2415 246.627 73.9845C247.127 73.7275 247.541 73.3419 247.861 72.8279C248.18 72.3138 248.344 71.6712 248.344 70.9001L248.361 70.883Z" fill="white"></path><path d="M262.491 77.5911C260.955 77.5911 259.627 77.2741 258.505 76.6315C257.392 75.989 256.53 75.0893 255.934 73.9155C255.339 72.7417 255.037 71.3538 255.037 69.7601C255.037 68.1665 255.339 66.8128 255.943 65.6219C256.547 64.431 257.392 63.5056 258.479 62.8459C259.566 62.1776 260.843 61.8521 262.31 61.8521C263.259 61.8521 264.148 62.0063 264.993 62.3061C265.839 62.606 266.581 63.0687 267.236 63.7027C267.883 64.3281 268.401 65.1335 268.772 66.1017C269.143 67.0699 269.333 68.2265 269.333 69.5631V70.6683H256.745V68.2436H265.864C265.864 67.5582 265.709 66.9413 265.416 66.4016C265.123 65.8618 264.717 65.4334 264.191 65.125C263.664 64.8165 263.061 64.6623 262.37 64.6623C261.628 64.6623 260.981 64.8422 260.421 65.1935C259.86 65.5448 259.428 66.0074 259.118 66.5815C258.807 67.1555 258.652 67.781 258.643 68.4664V70.5827C258.643 71.4737 258.807 72.2277 259.135 72.8617C259.463 73.4957 259.92 73.9755 260.507 74.3097C261.094 74.6438 261.784 74.8152 262.569 74.8152C263.095 74.8152 263.57 74.738 264.001 74.5924C264.424 74.4467 264.795 74.224 265.114 73.9327C265.424 73.6414 265.666 73.2815 265.821 72.8531L269.203 73.2301C268.988 74.1212 268.582 74.8923 267.987 75.552C267.392 76.2117 266.632 76.7172 265.701 77.0771C264.769 77.4369 263.716 77.6168 262.526 77.6168L262.491 77.5911Z" fill="white"></path><path d="M276.002 56.9682V77.2996H272.387V56.9682H276.002Z" fill="white"></path></g><defs><clipPath id="clip0_1810_5071"><rect width="276" height="95" fill="white"></rect></clipPath></defs></svg>