<svg width="1280" height="720" viewBox="0 0 1280 720" fill="none" xmlns="http://www.w3.org/2000/svg">
<rect width="1280" height="720" fill="url(#paint0_linear_26_2)"/>
<g filter="url(#filter0_d_26_2)">
<path d="M56 176.094V21C56 15.4772 60.4771 11 66 11H1254C1259.52 11 1264 15.4772 1264 21V695C1264 700.523 1259.52 705 1254 705H66C60.4772 705 56 700.523 56 695V515.279C56 509.684 53.6561 504.345 49.5375 500.557L18.9625 472.443C14.8439 468.655 12.5 463.316 12.5 457.721V232.633C12.5 227.123 14.7729 221.858 18.7823 218.079L50.9742 187.737C54.1817 184.714 56 180.501 56 176.094Z" fill="url(#paint1_linear_26_2)" fill-opacity="0.5" shape-rendering="crispEdges"/>
</g>
<path d="M34.4549 237.644L35.4999 237.919L36.0712 243.896C36.3937 247.272 36.5549 248.96 37.6261 249.98C38.6974 251 40.3099 251 43.5336 251H47.4661C50.691 251 52.3035 251 53.3735 249.98C54.4448 248.96 54.606 247.272 54.9285 243.894L55.4998 237.92L56.5447 237.644C56.9022 237.55 57.2264 237.349 57.4787 237.067C57.731 236.784 57.9009 236.431 57.9679 236.05C58.035 235.668 57.9964 235.275 57.8569 234.916C57.7174 234.557 57.4828 234.248 57.181 234.025L46.9336 226.476C46.5134 226.166 46.0128 226 45.4998 226C44.9869 226 44.4863 226.166 44.0661 226.476L33.8187 234.025C33.5169 234.248 33.2823 234.557 33.1429 234.916C33.0034 235.275 32.965 235.669 33.0322 236.05C33.0994 236.432 33.2694 236.785 33.5218 237.067C33.7743 237.35 34.0974 237.55 34.4549 237.644Z" stroke="white" stroke-opacity="0.4" stroke-width="1.5" stroke-linecap="round" stroke-linejoin="round"/>
<path d="M49.2497 243.763C48.2497 244.581 46.9372 245.079 45.4997 245.079C44.0622 245.079 42.7497 244.581 41.7498 243.763" stroke="white" stroke-opacity="0.4" stroke-width="1.5" stroke-linecap="round" stroke-linejoin="round"/>
<path d="M35.2444 293C34.6046 293 34.0708 292.782 33.6431 292.345C33.2153 291.909 33.0009 291.364 33 290.711V278.289C33 277.637 33.2144 277.092 33.6431 276.656C34.0718 276.22 34.6051 276.001 35.2431 276H55.7569C56.3958 276 56.9292 276.219 57.3569 276.656C57.7847 277.093 57.9991 277.638 58 278.289V290.712C58 291.364 57.7856 291.908 57.3569 292.345C56.9282 292.783 56.3949 293.001 55.7569 293H35.2444ZM35.2444 291.583H55.7569C55.9699 291.583 56.1657 291.493 56.3444 291.311C56.5231 291.13 56.612 290.93 56.6111 290.711V278.289C56.6111 278.071 56.5222 277.871 56.3444 277.689C56.1667 277.506 55.9708 277.416 55.7569 277.417H35.2431C35.0301 277.417 34.8343 277.507 34.6556 277.689C34.4769 277.87 34.388 278.07 34.3889 278.289V290.712C34.3889 290.929 34.4778 291.129 34.6556 291.311C34.8333 291.494 35.0292 291.584 35.2431 291.583M53.5667 288.478H50.7083C50.5324 288.478 50.3861 288.537 50.2694 288.656C50.1528 288.775 50.0944 288.924 50.0944 289.104C50.0944 289.285 50.1528 289.434 50.2694 289.552C50.3861 289.67 50.5324 289.729 50.7083 289.73H53.6736C53.9958 289.73 54.263 289.622 54.475 289.404C54.687 289.187 54.7935 288.914 54.7944 288.586V285.562C54.7944 285.383 54.7361 285.234 54.6194 285.115C54.5037 284.996 54.3574 284.936 54.1806 284.936C54.0037 284.936 53.8574 284.996 53.7417 285.115C53.625 285.234 53.5667 285.383 53.5667 285.562V288.478ZM45.5 287.879C46.4074 287.879 47.1866 287.547 47.8375 286.884C48.4875 286.221 48.8125 285.426 48.8125 284.5C48.8125 283.573 48.4875 282.779 47.8375 282.116C47.1875 281.453 46.4083 281.121 45.5 281.121C44.5917 281.121 43.8125 281.453 43.1625 282.116C42.5125 282.779 42.1875 283.573 42.1875 284.5C42.1875 285.426 42.5125 286.221 43.1625 286.884C43.8125 287.547 44.5917 287.879 45.5 287.879ZM37.4333 280.522H40.2917C40.4676 280.522 40.6139 280.462 40.7306 280.343C40.8472 280.224 40.9056 280.075 40.9056 279.896C40.9056 279.716 40.8472 279.567 40.7306 279.448C40.6139 279.329 40.4676 279.27 40.2917 279.27H37.3278C37.0046 279.27 36.737 279.378 36.525 279.595C36.313 279.813 36.2065 280.085 36.2056 280.413V283.437C36.2056 283.617 36.2639 283.766 36.3806 283.885C36.4972 284.004 36.6435 284.064 36.8194 284.064C36.9954 284.064 37.1417 284.004 37.2583 283.885C37.375 283.766 37.4333 283.617 37.4333 283.437V280.522Z" fill="white"/>
<path d="M55.2222 345.472H35.7778C35.4094 345.472 35.0562 345.619 34.7957 345.879C34.5352 346.139 34.3889 346.493 34.3889 346.861V362.139C34.3889 362.507 34.5352 362.861 34.7957 363.121C35.0562 363.381 35.4094 363.528 35.7778 363.528H55.2222C55.5906 363.528 55.9439 363.381 56.2043 363.121C56.4648 362.861 56.6111 362.507 56.6111 362.139V346.861C56.6111 346.493 56.4648 346.139 56.2043 345.879C55.9439 345.619 55.5906 345.472 55.2222 345.472ZM35.7778 362.139V346.861H55.2222V362.139H35.7778Z" fill="white" fill-opacity="0.4"/>
<path d="M37.8611 348.944H42.0278V360.056H40.9166V350.056H38.9722V360.056H37.8611V348.944Z" fill="white" fill-opacity="0.4"/>
<path d="M43.4167 355.194H47.5834V360.056H46.4723V356.306H44.5279V360.056H43.4167V355.194Z" fill="white" fill-opacity="0.4"/>
<path d="M48.9722 353.111H53.1388V360.056H52.0277V354.222H50.0833V360.056H48.9722V353.111Z" fill="white" fill-opacity="0.4"/>
<path d="M1036 27H1239C1247.28 27 1254 33.7157 1254 42V678C1254 686.284 1247.28 693 1239 693H1036V27Z" fill="white"/>
<g clip-path="url(#clip0_26_2)">
<mask id="mask0_26_2" style="mask-type:luminance" maskUnits="userSpaceOnUse" x="82" y="33" width="152" height="52">
<path d="M234 33H82V85H234V33Z" fill="white"/>
</mask>
<g mask="url(#mask0_26_2)">
<path fill-rule="evenodd" clip-rule="evenodd" d="M116.452 85H122.02V57.6728H129.908L131.485 52.1999H122.016V44.6728C122.016 41.254 124.848 38.4729 128.326 38.4729V33C121.773 33 116.447 38.2385 116.447 44.6728V52.1999H113.639C112.394 47.3319 107.9 43.7161 102.564 43.7161C96.2683 43.7161 91.1463 48.7482 91.1463 54.934C91.1463 61.1198 96.2683 66.1519 102.564 66.1519C107.9 66.1519 112.39 62.5361 113.639 57.6681H116.447V84.9953L116.452 85ZM139.866 52.1999H143.768V57.6728H139.866V75.6908H134.298V45.0433H139.866V52.1999ZM102.569 48.645C99.0383 48.645 96.1638 51.4683 96.1638 54.9387C96.1638 58.4091 99.0383 61.2323 102.569 61.2323C106.099 61.2323 108.973 58.4091 108.973 54.9387C108.973 51.4683 106.099 48.645 102.569 48.645ZM82 60.1771C82 68.5296 88.9132 75.325 97.4134 75.325V69.8521C91.9825 69.8521 87.5685 65.5094 87.5685 60.1771V45.0433H82V60.1771Z" fill="#FF774A"/>
<path d="M164.52 45.5589H165.955L157.037 75.8594H155.602L164.52 45.5589Z" fill="white"/>
<path d="M179.088 61.9073V50.7785H186.311V52.4668H181.132V55.487H185.816V57.1753H181.132V61.9026H179.088V61.9073Z" fill="white"/>
<path d="M189.08 52.3777C188.766 52.3777 188.49 52.2745 188.267 52.0635C188.039 51.8525 187.925 51.6039 187.925 51.3084C187.925 51.013 188.039 50.7644 188.267 50.558C188.495 50.3517 188.766 50.2439 189.08 50.2439C189.393 50.2439 189.673 50.347 189.897 50.558C190.125 50.7691 190.234 51.0177 190.234 51.3131C190.234 51.6086 190.12 51.8571 189.897 52.0635C189.673 52.2698 189.398 52.3777 189.08 52.3777ZM188.077 61.9073V53.5595H190.068V61.9073H188.077Z" fill="white"/>
<path d="M194.555 62.0758C194.018 62.0758 193.538 61.982 193.11 61.7897C192.683 61.5974 192.345 61.3161 192.099 60.9456C191.851 60.5704 191.728 60.1108 191.728 59.5668C191.728 59.0978 191.818 58.7086 191.994 58.399C192.17 58.0895 192.412 57.8457 192.716 57.6581C193.02 57.4705 193.367 57.3345 193.747 57.236C194.128 57.1375 194.526 57.0718 194.94 57.0249C195.434 56.9734 195.838 56.9265 196.146 56.8843C196.455 56.8421 196.679 56.7764 196.821 56.6873C196.964 56.5981 197.035 56.4622 197.035 56.2699V56.237C197.035 55.829 196.911 55.5101 196.665 55.2851C196.417 55.0599 196.066 54.9474 195.6 54.9474C195.111 54.9474 194.726 55.0506 194.441 55.2616C194.156 55.4726 193.966 55.7212 193.866 56.0073L192.003 55.7446C192.151 55.2382 192.393 54.8114 192.73 54.469C193.068 54.1267 193.481 53.8687 193.971 53.6952C194.46 53.5217 194.997 53.4373 195.591 53.4373C195.999 53.4373 196.403 53.4842 196.807 53.578C197.211 53.6717 197.582 53.8265 197.914 54.0423C198.247 54.258 198.517 54.5487 198.722 54.9193C198.926 55.2897 199.026 55.7493 199.026 56.3027V61.8882H197.111V60.7439H197.045C196.926 60.9737 196.755 61.1941 196.536 61.3911C196.318 61.5928 196.042 61.7522 195.714 61.8741C195.386 61.9961 195.002 62.057 194.56 62.057L194.555 62.0758ZM195.073 60.6314C195.472 60.6314 195.819 60.5516 196.113 60.3969C196.408 60.2421 196.636 60.0311 196.793 59.7684C196.949 59.5058 197.03 59.2244 197.03 58.9149V57.9301C196.969 57.9817 196.864 58.0285 196.712 58.0707C196.564 58.113 196.399 58.1505 196.213 58.1833C196.028 58.2162 195.847 58.2443 195.667 58.2724C195.486 58.2959 195.329 58.3193 195.201 58.3381C194.902 58.3756 194.636 58.4412 194.403 58.5351C194.17 58.6241 193.985 58.7508 193.847 58.9149C193.709 59.079 193.643 59.2854 193.643 59.5387C193.643 59.8998 193.776 60.1765 194.047 60.3593C194.318 60.5423 194.655 60.636 195.073 60.636V60.6314Z" fill="white"/>
<path d="M203.022 57.0207V61.9121H201.031V53.5644H202.936V54.9806H203.036C203.231 54.5117 203.539 54.1412 203.967 53.8645C204.395 53.5878 204.922 53.4518 205.554 53.4518C206.139 53.4518 206.647 53.5737 207.084 53.8223C207.521 54.0708 207.859 54.4272 208.096 54.8916C208.333 55.3558 208.457 55.928 208.452 56.5939V61.9074H206.461V56.8988C206.461 56.3407 206.314 55.9045 206.025 55.5903C205.735 55.2761 205.331 55.1166 204.818 55.1166C204.471 55.1166 204.162 55.1917 203.891 55.3418C203.62 55.4918 203.411 55.7076 203.259 55.9889C203.107 56.2703 203.031 56.6127 203.031 57.016L203.022 57.0207Z" fill="white"/>
<path d="M214.167 62.0712C213.321 62.0712 212.599 61.8883 211.995 61.5225C211.392 61.1567 210.926 60.6502 210.603 60.0031C210.28 59.3558 210.114 58.6102 210.114 57.766C210.114 56.9219 210.28 56.1715 210.608 55.5196C210.941 54.8678 211.406 54.3613 212.01 54.0002C212.613 53.6344 213.326 53.4561 214.152 53.4561C214.836 53.4561 215.445 53.5781 215.977 53.8267C216.509 54.0752 216.932 54.4222 217.246 54.8771C217.559 55.3274 217.74 55.8526 217.787 56.4576H215.882C215.806 56.0543 215.621 55.7213 215.335 55.4493C215.046 55.1773 214.661 55.046 214.181 55.046C213.772 55.046 213.416 55.1538 213.107 55.3696C212.798 55.5853 212.561 55.8948 212.39 56.2981C212.219 56.7014 212.133 57.1798 212.133 57.7426C212.133 58.3053 212.219 58.7977 212.385 59.2058C212.556 59.6138 212.794 59.928 213.098 60.1437C213.402 60.3594 213.763 60.472 214.181 60.472C214.476 60.472 214.737 60.4157 214.97 60.3079C215.203 60.1953 215.397 60.0359 215.554 59.8248C215.711 59.6138 215.82 59.3605 215.877 59.0604H217.782C217.735 59.6513 217.559 60.1719 217.255 60.6268C216.951 61.0817 216.538 61.4381 216.01 61.6914C215.487 61.9446 214.87 62.0759 214.162 62.0759L214.167 62.0712ZM213.597 61.8649H214.675L214.585 62.3244C214.932 62.3761 215.221 62.5074 215.464 62.7184C215.706 62.9294 215.825 63.2343 215.825 63.6329C215.825 64.1488 215.597 64.5615 215.127 64.871C214.656 65.1805 213.986 65.34 213.117 65.34L213.093 64.3739C213.516 64.3739 213.848 64.3176 214.1 64.2097C214.352 64.0972 214.476 63.9237 214.48 63.6845C214.49 63.4547 214.4 63.2812 214.219 63.178C214.038 63.0701 213.749 62.9998 213.359 62.9576L213.597 61.8649Z" fill="white"/>
<path d="M221.865 62.0758C221.328 62.0758 220.848 61.982 220.42 61.7897C219.992 61.5974 219.655 61.3161 219.408 60.9456C219.161 60.5704 219.037 60.1108 219.037 59.5668C219.037 59.0978 219.128 58.7086 219.303 58.399C219.48 58.0895 219.722 57.8457 220.026 57.6581C220.33 57.4705 220.677 57.3345 221.057 57.236C221.437 57.1375 221.836 57.0718 222.249 57.0249C222.744 56.9734 223.147 56.9265 223.456 56.8843C223.765 56.8421 223.988 56.7764 224.131 56.6873C224.274 56.5981 224.345 56.4622 224.345 56.2699V56.237C224.345 55.829 224.221 55.5101 223.974 55.2851C223.727 55.0599 223.375 54.9474 222.91 54.9474C222.42 54.9474 222.036 55.0506 221.75 55.2616C221.466 55.4726 221.276 55.7212 221.176 56.0073L219.313 55.7446C219.46 55.2382 219.703 54.8114 220.04 54.469C220.377 54.1267 220.791 53.8687 221.28 53.6952C221.77 53.5217 222.306 53.4373 222.9 53.4373C223.309 53.4373 223.713 53.4842 224.117 53.578C224.52 53.6717 224.891 53.8265 225.224 54.0423C225.556 54.258 225.827 54.5487 226.032 54.9193C226.236 55.2897 226.336 55.7493 226.336 56.3027V61.8882H224.421V60.7439H224.354C224.236 60.9737 224.064 61.1941 223.846 61.3911C223.627 61.5928 223.352 61.7522 223.024 61.8741C222.696 61.9961 222.311 62.057 221.869 62.057L221.865 62.0758ZM222.382 60.6314C222.782 60.6314 223.128 60.5516 223.423 60.3969C223.717 60.2421 223.945 60.0311 224.102 59.7684C224.259 59.5058 224.34 59.2244 224.34 58.9149V57.9301C224.278 57.9817 224.173 58.0285 224.021 58.0707C223.874 58.113 223.708 58.1505 223.523 58.1833C223.337 58.2162 223.157 58.2443 222.976 58.2724C222.796 58.2959 222.639 58.3193 222.511 58.3381C222.211 58.3756 221.945 58.4412 221.712 58.5351C221.48 58.6241 221.294 58.7508 221.157 58.9149C221.019 59.079 220.952 59.2854 220.952 59.5387C220.952 59.8998 221.086 60.1765 221.356 60.3593C221.627 60.5423 221.964 60.636 222.382 60.636V60.6314Z" fill="white"/>
<path d="M180.54 75.3114H178.359L182.326 64.1826H184.849L188.826 75.3114H186.645L183.632 66.4665H183.542L180.535 75.3114H180.54ZM180.611 70.9452H186.555V72.5632H180.611V70.9452Z" fill="white"/>
<path d="M192.213 64.1826V75.3114H190.222V64.1826H192.213Z" fill="white"/>
<path d="M199.654 71.7991V66.9639H201.645V75.3117H199.711V73.8297H199.62C199.43 74.2987 199.117 74.6786 198.68 74.9741C198.242 75.2695 197.71 75.4196 197.074 75.4196C196.518 75.4196 196.029 75.2976 195.606 75.0538C195.183 74.8099 194.85 74.4535 194.613 73.9845C194.375 73.5156 194.256 72.9481 194.256 72.2821V66.9686H196.247V71.9773C196.247 72.5072 196.394 72.9246 196.689 73.2389C196.984 73.5484 197.368 73.7078 197.844 73.7078C198.138 73.7078 198.423 73.6375 198.699 73.4968C198.974 73.3561 199.202 73.145 199.378 72.8637C199.554 72.5823 199.644 72.2306 199.644 71.8085L199.654 71.7991Z" fill="white"/>
<path d="M207.371 78.6127C206.653 78.6127 206.04 78.5189 205.527 78.3266C205.014 78.1344 204.601 77.8811 204.287 77.5622C203.973 77.2433 203.76 76.8916 203.636 76.5023L205.432 76.0708C205.513 76.235 205.632 76.3944 205.784 76.5586C205.936 76.718 206.145 76.854 206.411 76.9619C206.672 77.0698 207.005 77.1213 207.404 77.1213C207.969 77.1213 208.435 76.9853 208.805 76.718C209.176 76.446 209.361 76.0052 209.361 75.3908V73.8104H209.261C209.157 74.012 209.01 74.2231 208.815 74.4341C208.62 74.6499 208.359 74.828 208.04 74.9734C207.717 75.1188 207.318 75.1892 206.834 75.1892C206.183 75.1892 205.594 75.0391 205.071 74.7343C204.548 74.4294 204.125 73.9792 203.816 73.3742C203.507 72.7693 203.351 72.0142 203.351 71.1044C203.351 70.1946 203.507 69.4114 203.816 68.783C204.125 68.1499 204.548 67.6715 205.075 67.3432C205.603 67.0149 206.192 66.8508 206.843 66.8508C207.337 66.8508 207.746 66.9352 208.069 67.0994C208.392 67.2635 208.644 67.4605 208.838 67.6902C209.029 67.92 209.176 68.1358 209.276 68.3375H209.385V66.9586H211.352V75.4424C211.352 76.1552 211.181 76.7462 210.834 77.2152C210.487 77.6841 210.017 78.0312 209.418 78.2656C208.82 78.4955 208.14 78.6127 207.38 78.6127H207.371ZM207.39 73.6462C207.812 73.6462 208.174 73.5431 208.468 73.3414C208.767 73.1397 208.99 72.849 209.147 72.4644C209.299 72.0846 209.38 71.6297 209.38 71.095C209.38 70.5604 209.304 70.1102 209.152 69.7162C209 69.3223 208.777 69.0127 208.482 68.797C208.188 68.5766 207.827 68.4688 207.394 68.4688C206.962 68.4688 206.582 68.5813 206.283 68.8111C205.983 69.0409 205.76 69.3504 205.612 69.7491C205.46 70.1477 205.384 70.5979 205.384 71.0997C205.384 71.6015 205.46 72.0564 205.612 72.441C205.764 72.8255 205.993 73.121 206.292 73.332C206.592 73.5431 206.957 73.6509 207.394 73.6509L207.39 73.6462Z" fill="white"/>
<path d="M218.779 71.7991V66.9639H220.769V75.3117H218.835V73.8297H218.745C218.555 74.2987 218.242 74.6786 217.804 74.9741C217.368 75.2695 216.835 75.4196 216.198 75.4196C215.643 75.4196 215.153 75.2976 214.73 75.0538C214.307 74.8099 213.975 74.4535 213.737 73.9845C213.5 73.5156 213.381 72.9481 213.381 72.2821V66.9686H215.372V71.9773C215.372 72.5072 215.519 72.9246 215.813 73.2389C216.108 73.5484 216.493 73.7078 216.968 73.7078C217.263 73.7078 217.548 73.6375 217.824 73.4968C218.099 73.3561 218.327 73.145 218.503 72.8637C218.679 72.5823 218.769 72.2306 218.769 71.8085L218.779 71.7991Z" fill="white"/>
<path d="M226.56 75.4709C225.714 75.4709 224.983 75.2974 224.365 74.9457C223.752 74.594 223.277 74.1015 222.949 73.459C222.621 72.8165 222.455 72.0568 222.455 71.1845C222.455 70.3122 222.621 69.5712 222.954 68.9194C223.287 68.2675 223.752 67.761 224.351 67.3999C224.949 67.0341 225.653 66.8559 226.46 66.8559C226.983 66.8559 227.473 66.9403 227.938 67.1044C228.404 67.2685 228.813 67.5218 229.173 67.8688C229.53 68.2112 229.815 68.652 230.019 69.182C230.224 69.7119 230.328 70.345 230.328 71.0766V71.6816H223.396V70.3544H228.418C228.418 69.9792 228.332 69.6416 228.171 69.3461C228.01 69.0507 227.786 68.8162 227.496 68.6474C227.206 68.4785 226.874 68.3941 226.494 68.3941C226.085 68.3941 225.729 68.4926 225.42 68.6849C225.111 68.8772 224.873 69.1304 224.703 69.4446C224.531 69.7588 224.446 70.1012 224.441 70.4763V71.6347C224.441 72.1224 224.531 72.5352 224.712 72.8822C224.893 73.2292 225.144 73.4919 225.468 73.6748C225.791 73.8577 226.171 73.9515 226.603 73.9515C226.893 73.9515 227.154 73.9092 227.392 73.8295C227.625 73.7498 227.829 73.6279 228.005 73.4684C228.175 73.309 228.309 73.112 228.394 72.8775L230.257 73.0838C230.138 73.5716 229.915 73.9937 229.587 74.3548C229.259 74.7159 228.841 74.9926 228.328 75.1896C227.815 75.3865 227.235 75.485 226.579 75.485L226.56 75.4709Z" fill="white"/>
<path d="M234.001 64.1826V75.3114H232.01V64.1826H234.001Z" fill="white"/>
</g>
</g>
<path d="M36 326H33C32.4 326 32 325.6 32 325V317.5L38 313L48 320.5V328C48 328.6 47.6 329 47 329H37C36.4 329 36 328.6 36 328V320.5L46 313L52 317.5V325C52 325.6 51.6 326 51 326H48" stroke="white" stroke-opacity="0.4" stroke-width="2" stroke-linecap="round" stroke-linejoin="round"/>
<path d="M40 329V323H44V329" stroke="white" stroke-opacity="0.4" stroke-width="2" stroke-linecap="round" stroke-linejoin="round"/>
<defs>
<filter id="filter0_d_26_2" x="2.5" y="5" width="1271.5" height="714" filterUnits="userSpaceOnUse" color-interpolation-filters="sRGB">
<feFlood flood-opacity="0" result="BackgroundImageFix"/>
<feColorMatrix in="SourceAlpha" type="matrix" values="0 0 0 0 0 0 0 0 0 0 0 0 0 0 0 0 0 0 127 0" result="hardAlpha"/>
<feOffset dy="4"/>
<feGaussianBlur stdDeviation="5"/>
<feComposite in2="hardAlpha" operator="out"/>
<feColorMatrix type="matrix" values="0 0 0 0 0 0 0 0 0 0 0 0 0 0 0 0 0 0 1 0"/>
<feBlend mode="normal" in2="BackgroundImageFix" result="effect1_dropShadow_26_2"/>
<feBlend mode="normal" in="SourceGraphic" in2="effect1_dropShadow_26_2" result="shape"/>
</filter>
<linearGradient id="paint0_linear_26_2" x1="1280" y1="357.36" x2="-1.07438e-05" y2="362.64" gradientUnits="userSpaceOnUse">
<stop stop-color="#F56738"/>
<stop offset="0.341346" stop-color="#FF774A" stop-opacity="0.5"/>
<stop offset="0.673077" stop-color="#00B08A"/>
<stop offset="1" stop-color="#115644"/>
</linearGradient>
<linearGradient id="paint1_linear_26_2" x1="638.25" y1="11" x2="638.25" y2="705" gradientUnits="userSpaceOnUse">
<stop/>
<stop offset="0.278846" stop-color="#1C1C1C" stop-opacity="0.6"/>
<stop offset="0.634615" stop-color="#414141" stop-opacity="0.4"/>
<stop offset="1" stop-color="#666666" stop-opacity="0.1"/>
</linearGradient>
<clipPath id="clip0_26_2">
<rect width="152" height="52" fill="white" transform="translate(82 33)"/>
</clipPath>
</defs>
</svg>
